M48
INCH
T1C0.0689
T2C0.1575
%
G90
G05
T1
X3.4949Y-2.7134
X3.4949Y-3.4634
X3.4949Y-4.2134
X3.8949Y-2.7134
X3.8949Y-3.4634
X3.8949Y-4.2134
X4.2449Y-2.7134
X4.2449Y-3.4634
X4.2449Y-4.2134
X4.6449Y-2.7134
X4.6449Y-3.4634
X4.6449Y-4.2134
X4.9949Y-2.7134
X4.9949Y-3.4634
X4.9949Y-4.2134
X5.3949Y-2.7134
X5.3949Y-3.4634
X5.3949Y-4.2134
T2
X3.6949Y-2.7134
X3.6949Y-3.4634
X3.6949Y-4.2134
X4.4449Y-2.7134
X4.4449Y-3.4634
X4.4449Y-4.2134
X5.1949Y-2.7134
X5.1949Y-3.4634
X5.1949Y-4.2134
M30
