M48
INCH
T1C0.0118
T2C0.0315
T3C0.0394
T4C0.0430
T5C0.0433
T6C0.0591
%
G90
G05
T1
X3.7992Y-1.4181
X4.0591Y-1.737
X4.1929Y-1.7055
X4.2756Y-1.6071
X4.2835Y-1.6819
X4.7913Y-1.5992
X4.7913Y-1.7606
X4.7953Y-1.3079
X4.7953Y-1.4181
X4.9213Y-1.7213
X4.9961Y-1.6465
X5.1063Y-1.2764
X5.1063Y-1.3472
X5.1063Y-1.3945
X5.252Y-1.2803
X5.252Y-1.3472
X5.4291Y-1.3945
T2
X4.0709Y-2.5126
X4.0709Y-2.8126
X4.0709Y-3.2626
X4.0709Y-3.5626
X4.0709Y-4.0126
X4.0709Y-4.3126
X4.8209Y-2.5126
X4.8209Y-2.8126
X4.8209Y-3.2626
X4.8209Y-3.5626
X4.8209Y-4.0126
X4.8209Y-4.3126
X5.5673Y-2.5126
X5.5673Y-2.8126
X5.5709Y-3.2626
X5.5709Y-3.5626
X5.5709Y-4.0126
X5.5709Y-4.3126
T3
X3.5965Y-1.8079
X3.6949Y-1.8079
X3.7933Y-1.8079
X4.3465Y-1.8079
X4.4449Y-1.8079
X4.5433Y-1.8079
X5.0965Y-1.8079
X5.1949Y-1.8079
X5.2933Y-1.8079
T4
X3.9933Y-0.9173
X3.9933Y-1.5173
X4.0933Y-0.9173
X4.0933Y-1.5173
X4.1933Y-0.9173
X4.1933Y-1.5173
X4.2933Y-0.9173
X4.2933Y-1.5173
X4.3933Y-0.9173
X4.3933Y-1.5173
X4.4933Y-0.9173
X4.4933Y-1.5173
X4.5933Y-0.9173
X4.5933Y-1.5173
X4.6933Y-0.9173
X4.6933Y-1.5173
X4.7933Y-0.9173
X4.7933Y-1.5173
X4.8933Y-0.9173
X4.8933Y-1.5173
X4.9933Y-0.9173
X4.9933Y-1.5173
X5.0933Y-0.9173
X5.0933Y-1.5173
T6
X3.5449Y-2.6134
X3.5449Y-3.3634
X3.5449Y-4.1134
X3.7949Y-2.5134
X3.7949Y-3.2634
X3.7949Y-4.0134
X4.2949Y-2.6134
X4.2949Y-3.3634
X4.2949Y-4.1134
X4.5449Y-2.5134
X4.5449Y-3.2634
X4.5449Y-4.0134
X5.0449Y-2.6134
X5.0449Y-3.3634
X5.0449Y-4.1134
X5.2949Y-2.5134
X5.2949Y-3.2634
X5.2949Y-4.0134
T5
G00X3.5059Y-2.0894
M15
G01X3.5059Y-2.1169
M16
G05
G00X3.8839Y-2.0894
M15
G01X3.8839Y-2.1169
M16
G05
G00X4.2559Y-2.0894
M15
G01X4.2559Y-2.1169
M16
G05
G00X4.6339Y-2.0894
M15
G01X4.6339Y-2.1169
M16
G05
G00X5.0059Y-2.0894
M15
G01X5.0059Y-2.1169
M16
G05
G00X5.3839Y-2.0894
M15
G01X5.3839Y-2.1169
M16
G05
M30
