%TF.GenerationSoftware,KiCad,Pcbnew,8.0.2*%
%TF.CreationDate,2024-05-13T19:47:19+03:00*%
%TF.ProjectId,tasta_mea,74617374-615f-46d6-9561-2e6b69636164,rev?*%
%TF.SameCoordinates,Original*%
%TF.FileFunction,Copper,L2,Bot*%
%TF.FilePolarity,Positive*%
%FSLAX46Y46*%
G04 Gerber Fmt 4.6, Leading zero omitted, Abs format (unit mm)*
G04 Created by KiCad (PCBNEW 8.0.2) date 2024-05-13 19:47:19*
%MOMM*%
%LPD*%
G01*
G04 APERTURE LIST*
%TA.AperFunction,ComponentPad*%
%ADD10O,2.720000X3.240000*%
%TD*%
%TA.AperFunction,ComponentPad*%
%ADD11R,1.800000X1.800000*%
%TD*%
%TA.AperFunction,ComponentPad*%
%ADD12C,1.800000*%
%TD*%
%TA.AperFunction,ComponentPad*%
%ADD13C,2.500000*%
%TD*%
%TA.AperFunction,ComponentPad*%
%ADD14R,1.752600X1.752600*%
%TD*%
%TA.AperFunction,ComponentPad*%
%ADD15C,1.752600*%
%TD*%
%TA.AperFunction,ComponentPad*%
%ADD16R,1.600000X1.600000*%
%TD*%
%TA.AperFunction,ComponentPad*%
%ADD17O,1.600000X1.600000*%
%TD*%
%TA.AperFunction,ViaPad*%
%ADD18C,0.600000*%
%TD*%
%TA.AperFunction,Conductor*%
%ADD19C,0.200000*%
%TD*%
G04 APERTURE END LIST*
D10*
%TO.P,RV1,*%
%TO.N,*%
X98650000Y-53420000D03*
X89050000Y-53420000D03*
D11*
%TO.P,RV1,1,1*%
%TO.N,vcc*%
X96350000Y-45920000D03*
D12*
%TO.P,RV1,2,2*%
%TO.N,vol 1*%
X93850000Y-45920000D03*
%TO.P,RV1,3,3*%
%TO.N,gnd*%
X91350000Y-45920000D03*
%TD*%
D13*
%TO.P,S1,1,1*%
%TO.N,col 1*%
X90040000Y-66380000D03*
%TO.P,S1,2,2*%
%TO.N,Net-(D1-A)*%
X96390000Y-63840000D03*
%TD*%
D10*
%TO.P,RV3,*%
%TO.N,*%
X136750000Y-53420000D03*
X127150000Y-53420000D03*
D11*
%TO.P,RV3,1,1*%
%TO.N,vcc*%
X134450000Y-45920000D03*
D12*
%TO.P,RV3,2,2*%
%TO.N,vol 3*%
X131950000Y-45920000D03*
%TO.P,RV3,3,3*%
%TO.N,gnd*%
X129450000Y-45920000D03*
%TD*%
D14*
%TO.P,U1,1,TX0/PD3*%
%TO.N,unconnected-(U1-TX0{slash}PD3-Pad1)*%
X101430000Y-38540000D03*
D15*
%TO.P,U1,2,RX1/PD2*%
%TO.N,unconnected-(U1-RX1{slash}PD2-Pad2)*%
X103970000Y-38540000D03*
%TO.P,U1,3,GND*%
%TO.N,gnd*%
X106510000Y-38540000D03*
%TO.P,U1,4,GND*%
%TO.N,unconnected-(U1-GND-Pad4)*%
X109050000Y-38540000D03*
%TO.P,U1,5,2/PD1*%
%TO.N,col 1*%
X111590000Y-38540000D03*
%TO.P,U1,6,3/PD0*%
%TO.N,col 2*%
X114130000Y-38540000D03*
%TO.P,U1,7,4/PD4*%
%TO.N,col 3*%
X116670000Y-38540000D03*
%TO.P,U1,8,5/PC6*%
%TO.N,row 1*%
X119210000Y-38540000D03*
%TO.P,U1,9,6/PD7*%
%TO.N,row 2*%
X121750000Y-38540000D03*
%TO.P,U1,10,7/PE6*%
%TO.N,row 3*%
X124290000Y-38540000D03*
%TO.P,U1,11,8/PB4*%
%TO.N,vol 1*%
X126830000Y-38540000D03*
%TO.P,U1,12,9/PB5*%
%TO.N,vol 2*%
X129370000Y-38540000D03*
%TO.P,U1,13,10/PB6*%
%TO.N,vol 3*%
X129370000Y-23300000D03*
%TO.P,U1,14,16/PB2*%
%TO.N,unconnected-(U1-16{slash}PB2-Pad14)*%
X126830000Y-23300000D03*
%TO.P,U1,15,14/PB3*%
%TO.N,unconnected-(U1-14{slash}PB3-Pad15)*%
X124290000Y-23300000D03*
%TO.P,U1,16,15/PB1*%
%TO.N,unconnected-(U1-15{slash}PB1-Pad16)*%
X121750000Y-23300000D03*
%TO.P,U1,17,A0/PF7*%
%TO.N,unconnected-(U1-A0{slash}PF7-Pad17)*%
X119210000Y-23300000D03*
%TO.P,U1,18,A1/PF6*%
%TO.N,unconnected-(U1-A1{slash}PF6-Pad18)*%
X116670000Y-23300000D03*
%TO.P,U1,19,A2/PF5*%
%TO.N,unconnected-(U1-A2{slash}PF5-Pad19)*%
X114130000Y-23300000D03*
%TO.P,U1,20,A3/PF4*%
%TO.N,unconnected-(U1-A3{slash}PF4-Pad20)*%
X111590000Y-23300000D03*
%TO.P,U1,21,VCC*%
%TO.N,vcc*%
X109050000Y-23300000D03*
%TO.P,U1,22,RST*%
%TO.N,unconnected-(U1-RST-Pad22)*%
X106510000Y-23300000D03*
%TO.P,U1,23,GND*%
%TO.N,unconnected-(U1-GND-Pad23)*%
X103970000Y-23300000D03*
%TO.P,U1,24,RAW*%
%TO.N,unconnected-(U1-RAW-Pad24)*%
X101430000Y-23300000D03*
%TD*%
D13*
%TO.P,S6,1,1*%
%TO.N,col 3*%
X128140000Y-85430000D03*
%TO.P,S6,2,2*%
%TO.N,Net-(D6-A)*%
X134490000Y-82890000D03*
%TD*%
%TO.P,S7,1,1*%
%TO.N,col 1*%
X90040000Y-104480000D03*
%TO.P,S7,2,2*%
%TO.N,Net-(D7-A)*%
X96390000Y-101940000D03*
%TD*%
%TO.P,S2,1,1*%
%TO.N,col 2*%
X109090000Y-66380000D03*
%TO.P,S2,2,2*%
%TO.N,Net-(D2-A)*%
X115440000Y-63840000D03*
%TD*%
%TO.P,S9,1,1*%
%TO.N,col 3*%
X128140000Y-104480000D03*
%TO.P,S9,2,2*%
%TO.N,Net-(D9-A)*%
X134490000Y-101940000D03*
%TD*%
D10*
%TO.P,RV2,*%
%TO.N,*%
X117700000Y-53420000D03*
X108100000Y-53420000D03*
D11*
%TO.P,RV2,1,1*%
%TO.N,vcc*%
X115400000Y-45920000D03*
D12*
%TO.P,RV2,2,2*%
%TO.N,vol 2*%
X112900000Y-45920000D03*
%TO.P,RV2,3,3*%
%TO.N,gnd*%
X110400000Y-45920000D03*
%TD*%
D13*
%TO.P,S5,1,1*%
%TO.N,col 2*%
X109090000Y-85430000D03*
%TO.P,S5,2,2*%
%TO.N,Net-(D5-A)*%
X115440000Y-82890000D03*
%TD*%
%TO.P,S3,1,1*%
%TO.N,col 3*%
X128140000Y-66380000D03*
%TO.P,S3,2,2*%
%TO.N,Net-(D3-A)*%
X134490000Y-63840000D03*
%TD*%
%TO.P,S8,1,1*%
%TO.N,col 2*%
X109090000Y-104480000D03*
%TO.P,S8,2,2*%
%TO.N,Net-(D8-A)*%
X115440000Y-101940000D03*
%TD*%
%TO.P,S4,1,1*%
%TO.N,col 1*%
X90040000Y-85430000D03*
%TO.P,S4,2,2*%
%TO.N,Net-(D4-A)*%
X96390000Y-82890000D03*
%TD*%
D16*
%TO.P,D6,1,K*%
%TO.N,row 2*%
X141500000Y-90490000D03*
D17*
%TO.P,D6,2,A*%
%TO.N,Net-(D6-A)*%
X141500000Y-82870000D03*
%TD*%
D16*
%TO.P,D9,1,K*%
%TO.N,row 3*%
X141500000Y-109540000D03*
D17*
%TO.P,D9,2,A*%
%TO.N,Net-(D9-A)*%
X141500000Y-101920000D03*
%TD*%
D16*
%TO.P,D3,1,K*%
%TO.N,row 1*%
X141410000Y-71440000D03*
D17*
%TO.P,D3,2,A*%
%TO.N,Net-(D3-A)*%
X141410000Y-63820000D03*
%TD*%
D16*
%TO.P,D7,1,K*%
%TO.N,row 3*%
X103400000Y-109540000D03*
D17*
%TO.P,D7,2,A*%
%TO.N,Net-(D7-A)*%
X103400000Y-101920000D03*
%TD*%
D16*
%TO.P,D4,1,K*%
%TO.N,row 2*%
X103400000Y-90490000D03*
D17*
%TO.P,D4,2,A*%
%TO.N,Net-(D4-A)*%
X103400000Y-82870000D03*
%TD*%
D16*
%TO.P,D8,1,K*%
%TO.N,row 3*%
X122450000Y-109540000D03*
D17*
%TO.P,D8,2,A*%
%TO.N,Net-(D8-A)*%
X122450000Y-101920000D03*
%TD*%
D16*
%TO.P,D5,1,K*%
%TO.N,row 2*%
X122450000Y-90490000D03*
D17*
%TO.P,D5,2,A*%
%TO.N,Net-(D5-A)*%
X122450000Y-82870000D03*
%TD*%
D16*
%TO.P,D1,1,K*%
%TO.N,row 1*%
X103400000Y-71440000D03*
D17*
%TO.P,D1,2,A*%
%TO.N,Net-(D1-A)*%
X103400000Y-63820000D03*
%TD*%
D16*
%TO.P,D2,1,K*%
%TO.N,row 1*%
X122450000Y-71440000D03*
D17*
%TO.P,D2,2,A*%
%TO.N,Net-(D2-A)*%
X122450000Y-63820000D03*
%TD*%
D18*
%TO.N,row 1*%
X129700000Y-34220000D03*
X133400000Y-34220000D03*
%TO.N,row 2*%
X129700000Y-32420000D03*
X133400000Y-32520000D03*
X121800000Y-33220000D03*
X121800000Y-36020000D03*
%TO.N,row 3*%
X129700000Y-35420000D03*
X137900000Y-35420000D03*
%TO.N,vol 1*%
X108800000Y-42720000D03*
X106500000Y-43320000D03*
%TO.N,vcc*%
X96500000Y-36020000D03*
%TO.N,vol 2*%
X125000000Y-43720000D03*
X126900000Y-41820000D03*
%TO.N,col 2*%
X103100000Y-44120000D03*
X108600000Y-40820000D03*
%TO.N,col 3*%
X121700000Y-40620000D03*
X121700000Y-44720000D03*
%TD*%
D19*
%TO.N,row 1*%
X129700000Y-34220000D02*
X133400000Y-34220000D01*
%TO.N,Net-(D1-A)*%
X103380000Y-63840000D02*
X103400000Y-63820000D01*
X96390000Y-63840000D02*
X103380000Y-63840000D01*
%TO.N,Net-(D2-A)*%
X122430000Y-63840000D02*
X122450000Y-63820000D01*
X115440000Y-63840000D02*
X122430000Y-63840000D01*
%TO.N,Net-(D3-A)*%
X141390000Y-63840000D02*
X141410000Y-63820000D01*
X134490000Y-63840000D02*
X141390000Y-63840000D01*
%TO.N,Net-(D4-A)*%
X96390000Y-82890000D02*
X103380000Y-82890000D01*
X103380000Y-82890000D02*
X103400000Y-82870000D01*
%TO.N,row 2*%
X121800000Y-33220000D02*
X121800000Y-36020000D01*
X133300000Y-32420000D02*
X133400000Y-32520000D01*
X129700000Y-32420000D02*
X133300000Y-32420000D01*
%TO.N,Net-(D5-A)*%
X115440000Y-82890000D02*
X122430000Y-82890000D01*
X122430000Y-82890000D02*
X122450000Y-82870000D01*
%TO.N,Net-(D6-A)*%
X141480000Y-82890000D02*
X141500000Y-82870000D01*
X134490000Y-82890000D02*
X141480000Y-82890000D01*
%TO.N,row 3*%
X137900000Y-35420000D02*
X129700000Y-35420000D01*
%TO.N,Net-(D7-A)*%
X96390000Y-101940000D02*
X103380000Y-101940000D01*
X103380000Y-101940000D02*
X103400000Y-101920000D01*
%TO.N,Net-(D8-A)*%
X115440000Y-101940000D02*
X122430000Y-101940000D01*
X122430000Y-101940000D02*
X122450000Y-101920000D01*
%TO.N,Net-(D9-A)*%
X141480000Y-101940000D02*
X141500000Y-101920000D01*
X134490000Y-101940000D02*
X141480000Y-101940000D01*
%TO.N,vol 1*%
X108200000Y-43320000D02*
X108800000Y-42720000D01*
X106500000Y-43320000D02*
X108200000Y-43320000D01*
%TO.N,vcc*%
X134450000Y-47170000D02*
X134450000Y-45920000D01*
X96350000Y-47870000D02*
X97800000Y-49320000D01*
X96350000Y-45920000D02*
X96350000Y-47870000D01*
X115400000Y-45920000D02*
X118700000Y-49220000D01*
X96350000Y-45920000D02*
X96350000Y-36170000D01*
X132400000Y-49220000D02*
X134450000Y-47170000D01*
X96350000Y-36170000D02*
X96500000Y-36020000D01*
X118700000Y-49220000D02*
X132400000Y-49220000D01*
X97800000Y-49320000D02*
X112000000Y-49320000D01*
X112000000Y-49320000D02*
X115400000Y-45920000D01*
%TO.N,vol 2*%
X125000000Y-43720000D02*
X126900000Y-41820000D01*
%TO.N,col 1*%
X90040000Y-85430000D02*
X90040000Y-104480000D01*
X90040000Y-66380000D02*
X90040000Y-85430000D01*
%TO.N,col 2*%
X109090000Y-85430000D02*
X109090000Y-104480000D01*
X106400000Y-40820000D02*
X108600000Y-40820000D01*
X109090000Y-66380000D02*
X109090000Y-85430000D01*
X103100000Y-44120000D02*
X106400000Y-40820000D01*
%TO.N,col 3*%
X128140000Y-85430000D02*
X128140000Y-104480000D01*
X128140000Y-66380000D02*
X128140000Y-85430000D01*
X121700000Y-44720000D02*
X121700000Y-40620000D01*
%TD*%
M02*
