%TF.GenerationSoftware,KiCad,Pcbnew,8.0.2*%
%TF.CreationDate,2024-05-13T19:47:19+03:00*%
%TF.ProjectId,tasta_mea,74617374-615f-46d6-9561-2e6b69636164,rev?*%
%TF.SameCoordinates,Original*%
%TF.FileFunction,Legend,Bot*%
%TF.FilePolarity,Positive*%
%FSLAX46Y46*%
G04 Gerber Fmt 4.6, Leading zero omitted, Abs format (unit mm)*
G04 Created by KiCad (PCBNEW 8.0.2) date 2024-05-13 19:47:19*
%MOMM*%
%LPD*%
G01*
G04 APERTURE LIST*
%ADD10C,0.150000*%
%ADD11C,0.200000*%
%ADD12C,0.100000*%
%ADD13R,1.752600X1.752600*%
%ADD14C,1.752600*%
%ADD15O,2.720000X3.240000*%
%ADD16R,1.800000X1.800000*%
%ADD17C,1.800000*%
%ADD18C,1.750000*%
%ADD19C,4.000000*%
%ADD20C,2.500000*%
%ADD21R,1.600000X1.600000*%
%ADD22O,1.600000X1.600000*%
G04 APERTURE END LIST*
D10*
X106110390Y-35771476D02*
X106072295Y-35695286D01*
X106072295Y-35695286D02*
X106072295Y-35581000D01*
X106072295Y-35581000D02*
X106110390Y-35466714D01*
X106110390Y-35466714D02*
X106186580Y-35390524D01*
X106186580Y-35390524D02*
X106262771Y-35352429D01*
X106262771Y-35352429D02*
X106415152Y-35314333D01*
X106415152Y-35314333D02*
X106529438Y-35314333D01*
X106529438Y-35314333D02*
X106681819Y-35352429D01*
X106681819Y-35352429D02*
X106758009Y-35390524D01*
X106758009Y-35390524D02*
X106834200Y-35466714D01*
X106834200Y-35466714D02*
X106872295Y-35581000D01*
X106872295Y-35581000D02*
X106872295Y-35657191D01*
X106872295Y-35657191D02*
X106834200Y-35771476D01*
X106834200Y-35771476D02*
X106796104Y-35809572D01*
X106796104Y-35809572D02*
X106529438Y-35809572D01*
X106529438Y-35809572D02*
X106529438Y-35657191D01*
X106872295Y-36152429D02*
X106072295Y-36152429D01*
X106072295Y-36152429D02*
X106872295Y-36609572D01*
X106872295Y-36609572D02*
X106072295Y-36609572D01*
X106872295Y-36990524D02*
X106072295Y-36990524D01*
X106072295Y-36990524D02*
X106072295Y-37181000D01*
X106072295Y-37181000D02*
X106110390Y-37295286D01*
X106110390Y-37295286D02*
X106186580Y-37371476D01*
X106186580Y-37371476D02*
X106262771Y-37409571D01*
X106262771Y-37409571D02*
X106415152Y-37447667D01*
X106415152Y-37447667D02*
X106529438Y-37447667D01*
X106529438Y-37447667D02*
X106681819Y-37409571D01*
X106681819Y-37409571D02*
X106758009Y-37371476D01*
X106758009Y-37371476D02*
X106834200Y-37295286D01*
X106834200Y-37295286D02*
X106872295Y-37181000D01*
X106872295Y-37181000D02*
X106872295Y-36990524D01*
X106814200Y-25346666D02*
X106852295Y-25460952D01*
X106852295Y-25460952D02*
X106852295Y-25651428D01*
X106852295Y-25651428D02*
X106814200Y-25727619D01*
X106814200Y-25727619D02*
X106776104Y-25765714D01*
X106776104Y-25765714D02*
X106699914Y-25803809D01*
X106699914Y-25803809D02*
X106623723Y-25803809D01*
X106623723Y-25803809D02*
X106547533Y-25765714D01*
X106547533Y-25765714D02*
X106509438Y-25727619D01*
X106509438Y-25727619D02*
X106471342Y-25651428D01*
X106471342Y-25651428D02*
X106433247Y-25499047D01*
X106433247Y-25499047D02*
X106395152Y-25422857D01*
X106395152Y-25422857D02*
X106357057Y-25384762D01*
X106357057Y-25384762D02*
X106280866Y-25346666D01*
X106280866Y-25346666D02*
X106204676Y-25346666D01*
X106204676Y-25346666D02*
X106128485Y-25384762D01*
X106128485Y-25384762D02*
X106090390Y-25422857D01*
X106090390Y-25422857D02*
X106052295Y-25499047D01*
X106052295Y-25499047D02*
X106052295Y-25689524D01*
X106052295Y-25689524D02*
X106090390Y-25803809D01*
X106052295Y-26032381D02*
X106052295Y-26489524D01*
X106852295Y-26260952D02*
X106052295Y-26260952D01*
X111952295Y-35790524D02*
X111152295Y-35790524D01*
X111152295Y-35790524D02*
X111152295Y-35981000D01*
X111152295Y-35981000D02*
X111190390Y-36095286D01*
X111190390Y-36095286D02*
X111266580Y-36171476D01*
X111266580Y-36171476D02*
X111342771Y-36209571D01*
X111342771Y-36209571D02*
X111495152Y-36247667D01*
X111495152Y-36247667D02*
X111609438Y-36247667D01*
X111609438Y-36247667D02*
X111761819Y-36209571D01*
X111761819Y-36209571D02*
X111838009Y-36171476D01*
X111838009Y-36171476D02*
X111914200Y-36095286D01*
X111914200Y-36095286D02*
X111952295Y-35981000D01*
X111952295Y-35981000D02*
X111952295Y-35790524D01*
X111952295Y-37009571D02*
X111952295Y-36552428D01*
X111952295Y-36781000D02*
X111152295Y-36781000D01*
X111152295Y-36781000D02*
X111266580Y-36704809D01*
X111266580Y-36704809D02*
X111342771Y-36628619D01*
X111342771Y-36628619D02*
X111380866Y-36552428D01*
X100992295Y-32301395D02*
X100992295Y-32758538D01*
X101792295Y-32529966D02*
X100992295Y-32529966D01*
X100992295Y-32949014D02*
X101792295Y-33482348D01*
X100992295Y-33482348D02*
X101792295Y-32949014D01*
X100992295Y-33939491D02*
X100992295Y-34015681D01*
X100992295Y-34015681D02*
X101030390Y-34091872D01*
X101030390Y-34091872D02*
X101068485Y-34129967D01*
X101068485Y-34129967D02*
X101144676Y-34168062D01*
X101144676Y-34168062D02*
X101297057Y-34206157D01*
X101297057Y-34206157D02*
X101487533Y-34206157D01*
X101487533Y-34206157D02*
X101639914Y-34168062D01*
X101639914Y-34168062D02*
X101716104Y-34129967D01*
X101716104Y-34129967D02*
X101754200Y-34091872D01*
X101754200Y-34091872D02*
X101792295Y-34015681D01*
X101792295Y-34015681D02*
X101792295Y-33939491D01*
X101792295Y-33939491D02*
X101754200Y-33863300D01*
X101754200Y-33863300D02*
X101716104Y-33825205D01*
X101716104Y-33825205D02*
X101639914Y-33787110D01*
X101639914Y-33787110D02*
X101487533Y-33749014D01*
X101487533Y-33749014D02*
X101297057Y-33749014D01*
X101297057Y-33749014D02*
X101144676Y-33787110D01*
X101144676Y-33787110D02*
X101068485Y-33825205D01*
X101068485Y-33825205D02*
X101030390Y-33863300D01*
X101030390Y-33863300D02*
X100992295Y-33939491D01*
X100954200Y-35120443D02*
X101982771Y-34434729D01*
X101792295Y-35387110D02*
X100992295Y-35387110D01*
X100992295Y-35387110D02*
X100992295Y-35577586D01*
X100992295Y-35577586D02*
X101030390Y-35691872D01*
X101030390Y-35691872D02*
X101106580Y-35768062D01*
X101106580Y-35768062D02*
X101182771Y-35806157D01*
X101182771Y-35806157D02*
X101335152Y-35844253D01*
X101335152Y-35844253D02*
X101449438Y-35844253D01*
X101449438Y-35844253D02*
X101601819Y-35806157D01*
X101601819Y-35806157D02*
X101678009Y-35768062D01*
X101678009Y-35768062D02*
X101754200Y-35691872D01*
X101754200Y-35691872D02*
X101792295Y-35577586D01*
X101792295Y-35577586D02*
X101792295Y-35387110D01*
X100992295Y-36110919D02*
X100992295Y-36606157D01*
X100992295Y-36606157D02*
X101297057Y-36339491D01*
X101297057Y-36339491D02*
X101297057Y-36453776D01*
X101297057Y-36453776D02*
X101335152Y-36529967D01*
X101335152Y-36529967D02*
X101373247Y-36568062D01*
X101373247Y-36568062D02*
X101449438Y-36606157D01*
X101449438Y-36606157D02*
X101639914Y-36606157D01*
X101639914Y-36606157D02*
X101716104Y-36568062D01*
X101716104Y-36568062D02*
X101754200Y-36529967D01*
X101754200Y-36529967D02*
X101792295Y-36453776D01*
X101792295Y-36453776D02*
X101792295Y-36225205D01*
X101792295Y-36225205D02*
X101754200Y-36149014D01*
X101754200Y-36149014D02*
X101716104Y-36110919D01*
X121693247Y-25135190D02*
X121731342Y-25249476D01*
X121731342Y-25249476D02*
X121769438Y-25287571D01*
X121769438Y-25287571D02*
X121845628Y-25325667D01*
X121845628Y-25325667D02*
X121959914Y-25325667D01*
X121959914Y-25325667D02*
X122036104Y-25287571D01*
X122036104Y-25287571D02*
X122074200Y-25249476D01*
X122074200Y-25249476D02*
X122112295Y-25173286D01*
X122112295Y-25173286D02*
X122112295Y-24868524D01*
X122112295Y-24868524D02*
X121312295Y-24868524D01*
X121312295Y-24868524D02*
X121312295Y-25135190D01*
X121312295Y-25135190D02*
X121350390Y-25211381D01*
X121350390Y-25211381D02*
X121388485Y-25249476D01*
X121388485Y-25249476D02*
X121464676Y-25287571D01*
X121464676Y-25287571D02*
X121540866Y-25287571D01*
X121540866Y-25287571D02*
X121617057Y-25249476D01*
X121617057Y-25249476D02*
X121655152Y-25211381D01*
X121655152Y-25211381D02*
X121693247Y-25135190D01*
X121693247Y-25135190D02*
X121693247Y-24868524D01*
X122112295Y-26087571D02*
X122112295Y-25630428D01*
X122112295Y-25859000D02*
X121312295Y-25859000D01*
X121312295Y-25859000D02*
X121426580Y-25782809D01*
X121426580Y-25782809D02*
X121502771Y-25706619D01*
X121502771Y-25706619D02*
X121540866Y-25630428D01*
X126773247Y-36057190D02*
X126811342Y-36171476D01*
X126811342Y-36171476D02*
X126849438Y-36209571D01*
X126849438Y-36209571D02*
X126925628Y-36247667D01*
X126925628Y-36247667D02*
X127039914Y-36247667D01*
X127039914Y-36247667D02*
X127116104Y-36209571D01*
X127116104Y-36209571D02*
X127154200Y-36171476D01*
X127154200Y-36171476D02*
X127192295Y-36095286D01*
X127192295Y-36095286D02*
X127192295Y-35790524D01*
X127192295Y-35790524D02*
X126392295Y-35790524D01*
X126392295Y-35790524D02*
X126392295Y-36057190D01*
X126392295Y-36057190D02*
X126430390Y-36133381D01*
X126430390Y-36133381D02*
X126468485Y-36171476D01*
X126468485Y-36171476D02*
X126544676Y-36209571D01*
X126544676Y-36209571D02*
X126620866Y-36209571D01*
X126620866Y-36209571D02*
X126697057Y-36171476D01*
X126697057Y-36171476D02*
X126735152Y-36133381D01*
X126735152Y-36133381D02*
X126773247Y-36057190D01*
X126773247Y-36057190D02*
X126773247Y-35790524D01*
X126658961Y-36933381D02*
X127192295Y-36933381D01*
X126354200Y-36742905D02*
X126925628Y-36552428D01*
X126925628Y-36552428D02*
X126925628Y-37047667D01*
X114492295Y-35790524D02*
X113692295Y-35790524D01*
X113692295Y-35790524D02*
X113692295Y-35981000D01*
X113692295Y-35981000D02*
X113730390Y-36095286D01*
X113730390Y-36095286D02*
X113806580Y-36171476D01*
X113806580Y-36171476D02*
X113882771Y-36209571D01*
X113882771Y-36209571D02*
X114035152Y-36247667D01*
X114035152Y-36247667D02*
X114149438Y-36247667D01*
X114149438Y-36247667D02*
X114301819Y-36209571D01*
X114301819Y-36209571D02*
X114378009Y-36171476D01*
X114378009Y-36171476D02*
X114454200Y-36095286D01*
X114454200Y-36095286D02*
X114492295Y-35981000D01*
X114492295Y-35981000D02*
X114492295Y-35790524D01*
X113692295Y-36742905D02*
X113692295Y-36819095D01*
X113692295Y-36819095D02*
X113730390Y-36895286D01*
X113730390Y-36895286D02*
X113768485Y-36933381D01*
X113768485Y-36933381D02*
X113844676Y-36971476D01*
X113844676Y-36971476D02*
X113997057Y-37009571D01*
X113997057Y-37009571D02*
X114187533Y-37009571D01*
X114187533Y-37009571D02*
X114339914Y-36971476D01*
X114339914Y-36971476D02*
X114416104Y-36933381D01*
X114416104Y-36933381D02*
X114454200Y-36895286D01*
X114454200Y-36895286D02*
X114492295Y-36819095D01*
X114492295Y-36819095D02*
X114492295Y-36742905D01*
X114492295Y-36742905D02*
X114454200Y-36666714D01*
X114454200Y-36666714D02*
X114416104Y-36628619D01*
X114416104Y-36628619D02*
X114339914Y-36590524D01*
X114339914Y-36590524D02*
X114187533Y-36552428D01*
X114187533Y-36552428D02*
X113997057Y-36552428D01*
X113997057Y-36552428D02*
X113844676Y-36590524D01*
X113844676Y-36590524D02*
X113768485Y-36628619D01*
X113768485Y-36628619D02*
X113730390Y-36666714D01*
X113730390Y-36666714D02*
X113692295Y-36742905D01*
X129313247Y-36057190D02*
X129351342Y-36171476D01*
X129351342Y-36171476D02*
X129389438Y-36209571D01*
X129389438Y-36209571D02*
X129465628Y-36247667D01*
X129465628Y-36247667D02*
X129579914Y-36247667D01*
X129579914Y-36247667D02*
X129656104Y-36209571D01*
X129656104Y-36209571D02*
X129694200Y-36171476D01*
X129694200Y-36171476D02*
X129732295Y-36095286D01*
X129732295Y-36095286D02*
X129732295Y-35790524D01*
X129732295Y-35790524D02*
X128932295Y-35790524D01*
X128932295Y-35790524D02*
X128932295Y-36057190D01*
X128932295Y-36057190D02*
X128970390Y-36133381D01*
X128970390Y-36133381D02*
X129008485Y-36171476D01*
X129008485Y-36171476D02*
X129084676Y-36209571D01*
X129084676Y-36209571D02*
X129160866Y-36209571D01*
X129160866Y-36209571D02*
X129237057Y-36171476D01*
X129237057Y-36171476D02*
X129275152Y-36133381D01*
X129275152Y-36133381D02*
X129313247Y-36057190D01*
X129313247Y-36057190D02*
X129313247Y-35790524D01*
X128932295Y-36971476D02*
X128932295Y-36590524D01*
X128932295Y-36590524D02*
X129313247Y-36552428D01*
X129313247Y-36552428D02*
X129275152Y-36590524D01*
X129275152Y-36590524D02*
X129237057Y-36666714D01*
X129237057Y-36666714D02*
X129237057Y-36857190D01*
X129237057Y-36857190D02*
X129275152Y-36933381D01*
X129275152Y-36933381D02*
X129313247Y-36971476D01*
X129313247Y-36971476D02*
X129389438Y-37009571D01*
X129389438Y-37009571D02*
X129579914Y-37009571D01*
X129579914Y-37009571D02*
X129656104Y-36971476D01*
X129656104Y-36971476D02*
X129694200Y-36933381D01*
X129694200Y-36933381D02*
X129732295Y-36857190D01*
X129732295Y-36857190D02*
X129732295Y-36666714D01*
X129732295Y-36666714D02*
X129694200Y-36590524D01*
X129694200Y-36590524D02*
X129656104Y-36552428D01*
X116613247Y-25192333D02*
X116613247Y-24925667D01*
X117032295Y-24925667D02*
X116232295Y-24925667D01*
X116232295Y-24925667D02*
X116232295Y-25306619D01*
X116232295Y-25954238D02*
X116232295Y-25801857D01*
X116232295Y-25801857D02*
X116270390Y-25725666D01*
X116270390Y-25725666D02*
X116308485Y-25687571D01*
X116308485Y-25687571D02*
X116422771Y-25611381D01*
X116422771Y-25611381D02*
X116575152Y-25573285D01*
X116575152Y-25573285D02*
X116879914Y-25573285D01*
X116879914Y-25573285D02*
X116956104Y-25611381D01*
X116956104Y-25611381D02*
X116994200Y-25649476D01*
X116994200Y-25649476D02*
X117032295Y-25725666D01*
X117032295Y-25725666D02*
X117032295Y-25878047D01*
X117032295Y-25878047D02*
X116994200Y-25954238D01*
X116994200Y-25954238D02*
X116956104Y-25992333D01*
X116956104Y-25992333D02*
X116879914Y-26030428D01*
X116879914Y-26030428D02*
X116689438Y-26030428D01*
X116689438Y-26030428D02*
X116613247Y-25992333D01*
X116613247Y-25992333D02*
X116575152Y-25954238D01*
X116575152Y-25954238D02*
X116537057Y-25878047D01*
X116537057Y-25878047D02*
X116537057Y-25725666D01*
X116537057Y-25725666D02*
X116575152Y-25649476D01*
X116575152Y-25649476D02*
X116613247Y-25611381D01*
X116613247Y-25611381D02*
X116689438Y-25573285D01*
X101792295Y-24906619D02*
X101411342Y-24639952D01*
X101792295Y-24449476D02*
X100992295Y-24449476D01*
X100992295Y-24449476D02*
X100992295Y-24754238D01*
X100992295Y-24754238D02*
X101030390Y-24830428D01*
X101030390Y-24830428D02*
X101068485Y-24868523D01*
X101068485Y-24868523D02*
X101144676Y-24906619D01*
X101144676Y-24906619D02*
X101258961Y-24906619D01*
X101258961Y-24906619D02*
X101335152Y-24868523D01*
X101335152Y-24868523D02*
X101373247Y-24830428D01*
X101373247Y-24830428D02*
X101411342Y-24754238D01*
X101411342Y-24754238D02*
X101411342Y-24449476D01*
X101563723Y-25211380D02*
X101563723Y-25592333D01*
X101792295Y-25135190D02*
X100992295Y-25401857D01*
X100992295Y-25401857D02*
X101792295Y-25668523D01*
X100992295Y-25858999D02*
X101792295Y-26049475D01*
X101792295Y-26049475D02*
X101220866Y-26201856D01*
X101220866Y-26201856D02*
X101792295Y-26354237D01*
X101792295Y-26354237D02*
X100992295Y-26544714D01*
X119153247Y-25192333D02*
X119153247Y-24925667D01*
X119572295Y-24925667D02*
X118772295Y-24925667D01*
X118772295Y-24925667D02*
X118772295Y-25306619D01*
X118772295Y-25535190D02*
X118772295Y-26068524D01*
X118772295Y-26068524D02*
X119572295Y-25725666D01*
X126773247Y-25135190D02*
X126811342Y-25249476D01*
X126811342Y-25249476D02*
X126849438Y-25287571D01*
X126849438Y-25287571D02*
X126925628Y-25325667D01*
X126925628Y-25325667D02*
X127039914Y-25325667D01*
X127039914Y-25325667D02*
X127116104Y-25287571D01*
X127116104Y-25287571D02*
X127154200Y-25249476D01*
X127154200Y-25249476D02*
X127192295Y-25173286D01*
X127192295Y-25173286D02*
X127192295Y-24868524D01*
X127192295Y-24868524D02*
X126392295Y-24868524D01*
X126392295Y-24868524D02*
X126392295Y-25135190D01*
X126392295Y-25135190D02*
X126430390Y-25211381D01*
X126430390Y-25211381D02*
X126468485Y-25249476D01*
X126468485Y-25249476D02*
X126544676Y-25287571D01*
X126544676Y-25287571D02*
X126620866Y-25287571D01*
X126620866Y-25287571D02*
X126697057Y-25249476D01*
X126697057Y-25249476D02*
X126735152Y-25211381D01*
X126735152Y-25211381D02*
X126773247Y-25135190D01*
X126773247Y-25135190D02*
X126773247Y-24868524D01*
X126468485Y-25630428D02*
X126430390Y-25668524D01*
X126430390Y-25668524D02*
X126392295Y-25744714D01*
X126392295Y-25744714D02*
X126392295Y-25935190D01*
X126392295Y-25935190D02*
X126430390Y-26011381D01*
X126430390Y-26011381D02*
X126468485Y-26049476D01*
X126468485Y-26049476D02*
X126544676Y-26087571D01*
X126544676Y-26087571D02*
X126620866Y-26087571D01*
X126620866Y-26087571D02*
X126735152Y-26049476D01*
X126735152Y-26049476D02*
X127192295Y-25592333D01*
X127192295Y-25592333D02*
X127192295Y-26087571D01*
X108612295Y-24392333D02*
X109412295Y-24659000D01*
X109412295Y-24659000D02*
X108612295Y-24925666D01*
X109336104Y-25649476D02*
X109374200Y-25611380D01*
X109374200Y-25611380D02*
X109412295Y-25497095D01*
X109412295Y-25497095D02*
X109412295Y-25420904D01*
X109412295Y-25420904D02*
X109374200Y-25306618D01*
X109374200Y-25306618D02*
X109298009Y-25230428D01*
X109298009Y-25230428D02*
X109221819Y-25192333D01*
X109221819Y-25192333D02*
X109069438Y-25154237D01*
X109069438Y-25154237D02*
X108955152Y-25154237D01*
X108955152Y-25154237D02*
X108802771Y-25192333D01*
X108802771Y-25192333D02*
X108726580Y-25230428D01*
X108726580Y-25230428D02*
X108650390Y-25306618D01*
X108650390Y-25306618D02*
X108612295Y-25420904D01*
X108612295Y-25420904D02*
X108612295Y-25497095D01*
X108612295Y-25497095D02*
X108650390Y-25611380D01*
X108650390Y-25611380D02*
X108688485Y-25649476D01*
X109336104Y-26449476D02*
X109374200Y-26411380D01*
X109374200Y-26411380D02*
X109412295Y-26297095D01*
X109412295Y-26297095D02*
X109412295Y-26220904D01*
X109412295Y-26220904D02*
X109374200Y-26106618D01*
X109374200Y-26106618D02*
X109298009Y-26030428D01*
X109298009Y-26030428D02*
X109221819Y-25992333D01*
X109221819Y-25992333D02*
X109069438Y-25954237D01*
X109069438Y-25954237D02*
X108955152Y-25954237D01*
X108955152Y-25954237D02*
X108802771Y-25992333D01*
X108802771Y-25992333D02*
X108726580Y-26030428D01*
X108726580Y-26030428D02*
X108650390Y-26106618D01*
X108650390Y-26106618D02*
X108612295Y-26220904D01*
X108612295Y-26220904D02*
X108612295Y-26297095D01*
X108612295Y-26297095D02*
X108650390Y-26411380D01*
X108650390Y-26411380D02*
X108688485Y-26449476D01*
X103570390Y-24849476D02*
X103532295Y-24773286D01*
X103532295Y-24773286D02*
X103532295Y-24659000D01*
X103532295Y-24659000D02*
X103570390Y-24544714D01*
X103570390Y-24544714D02*
X103646580Y-24468524D01*
X103646580Y-24468524D02*
X103722771Y-24430429D01*
X103722771Y-24430429D02*
X103875152Y-24392333D01*
X103875152Y-24392333D02*
X103989438Y-24392333D01*
X103989438Y-24392333D02*
X104141819Y-24430429D01*
X104141819Y-24430429D02*
X104218009Y-24468524D01*
X104218009Y-24468524D02*
X104294200Y-24544714D01*
X104294200Y-24544714D02*
X104332295Y-24659000D01*
X104332295Y-24659000D02*
X104332295Y-24735191D01*
X104332295Y-24735191D02*
X104294200Y-24849476D01*
X104294200Y-24849476D02*
X104256104Y-24887572D01*
X104256104Y-24887572D02*
X103989438Y-24887572D01*
X103989438Y-24887572D02*
X103989438Y-24735191D01*
X104332295Y-25230429D02*
X103532295Y-25230429D01*
X103532295Y-25230429D02*
X104332295Y-25687572D01*
X104332295Y-25687572D02*
X103532295Y-25687572D01*
X104332295Y-26068524D02*
X103532295Y-26068524D01*
X103532295Y-26068524D02*
X103532295Y-26259000D01*
X103532295Y-26259000D02*
X103570390Y-26373286D01*
X103570390Y-26373286D02*
X103646580Y-26449476D01*
X103646580Y-26449476D02*
X103722771Y-26487571D01*
X103722771Y-26487571D02*
X103875152Y-26525667D01*
X103875152Y-26525667D02*
X103989438Y-26525667D01*
X103989438Y-26525667D02*
X104141819Y-26487571D01*
X104141819Y-26487571D02*
X104218009Y-26449476D01*
X104218009Y-26449476D02*
X104294200Y-26373286D01*
X104294200Y-26373286D02*
X104332295Y-26259000D01*
X104332295Y-26259000D02*
X104332295Y-26068524D01*
X111533247Y-25192333D02*
X111533247Y-24925667D01*
X111952295Y-24925667D02*
X111152295Y-24925667D01*
X111152295Y-24925667D02*
X111152295Y-25306619D01*
X111418961Y-25954238D02*
X111952295Y-25954238D01*
X111114200Y-25763762D02*
X111685628Y-25573285D01*
X111685628Y-25573285D02*
X111685628Y-26068524D01*
X129313247Y-25135190D02*
X129351342Y-25249476D01*
X129351342Y-25249476D02*
X129389438Y-25287571D01*
X129389438Y-25287571D02*
X129465628Y-25325667D01*
X129465628Y-25325667D02*
X129579914Y-25325667D01*
X129579914Y-25325667D02*
X129656104Y-25287571D01*
X129656104Y-25287571D02*
X129694200Y-25249476D01*
X129694200Y-25249476D02*
X129732295Y-25173286D01*
X129732295Y-25173286D02*
X129732295Y-24868524D01*
X129732295Y-24868524D02*
X128932295Y-24868524D01*
X128932295Y-24868524D02*
X128932295Y-25135190D01*
X128932295Y-25135190D02*
X128970390Y-25211381D01*
X128970390Y-25211381D02*
X129008485Y-25249476D01*
X129008485Y-25249476D02*
X129084676Y-25287571D01*
X129084676Y-25287571D02*
X129160866Y-25287571D01*
X129160866Y-25287571D02*
X129237057Y-25249476D01*
X129237057Y-25249476D02*
X129275152Y-25211381D01*
X129275152Y-25211381D02*
X129313247Y-25135190D01*
X129313247Y-25135190D02*
X129313247Y-24868524D01*
X128932295Y-26011381D02*
X128932295Y-25859000D01*
X128932295Y-25859000D02*
X128970390Y-25782809D01*
X128970390Y-25782809D02*
X129008485Y-25744714D01*
X129008485Y-25744714D02*
X129122771Y-25668524D01*
X129122771Y-25668524D02*
X129275152Y-25630428D01*
X129275152Y-25630428D02*
X129579914Y-25630428D01*
X129579914Y-25630428D02*
X129656104Y-25668524D01*
X129656104Y-25668524D02*
X129694200Y-25706619D01*
X129694200Y-25706619D02*
X129732295Y-25782809D01*
X129732295Y-25782809D02*
X129732295Y-25935190D01*
X129732295Y-25935190D02*
X129694200Y-26011381D01*
X129694200Y-26011381D02*
X129656104Y-26049476D01*
X129656104Y-26049476D02*
X129579914Y-26087571D01*
X129579914Y-26087571D02*
X129389438Y-26087571D01*
X129389438Y-26087571D02*
X129313247Y-26049476D01*
X129313247Y-26049476D02*
X129275152Y-26011381D01*
X129275152Y-26011381D02*
X129237057Y-25935190D01*
X129237057Y-25935190D02*
X129237057Y-25782809D01*
X129237057Y-25782809D02*
X129275152Y-25706619D01*
X129275152Y-25706619D02*
X129313247Y-25668524D01*
X129313247Y-25668524D02*
X129389438Y-25630428D01*
X119496104Y-36247667D02*
X119534200Y-36209571D01*
X119534200Y-36209571D02*
X119572295Y-36095286D01*
X119572295Y-36095286D02*
X119572295Y-36019095D01*
X119572295Y-36019095D02*
X119534200Y-35904809D01*
X119534200Y-35904809D02*
X119458009Y-35828619D01*
X119458009Y-35828619D02*
X119381819Y-35790524D01*
X119381819Y-35790524D02*
X119229438Y-35752428D01*
X119229438Y-35752428D02*
X119115152Y-35752428D01*
X119115152Y-35752428D02*
X118962771Y-35790524D01*
X118962771Y-35790524D02*
X118886580Y-35828619D01*
X118886580Y-35828619D02*
X118810390Y-35904809D01*
X118810390Y-35904809D02*
X118772295Y-36019095D01*
X118772295Y-36019095D02*
X118772295Y-36095286D01*
X118772295Y-36095286D02*
X118810390Y-36209571D01*
X118810390Y-36209571D02*
X118848485Y-36247667D01*
X118772295Y-36933381D02*
X118772295Y-36781000D01*
X118772295Y-36781000D02*
X118810390Y-36704809D01*
X118810390Y-36704809D02*
X118848485Y-36666714D01*
X118848485Y-36666714D02*
X118962771Y-36590524D01*
X118962771Y-36590524D02*
X119115152Y-36552428D01*
X119115152Y-36552428D02*
X119419914Y-36552428D01*
X119419914Y-36552428D02*
X119496104Y-36590524D01*
X119496104Y-36590524D02*
X119534200Y-36628619D01*
X119534200Y-36628619D02*
X119572295Y-36704809D01*
X119572295Y-36704809D02*
X119572295Y-36857190D01*
X119572295Y-36857190D02*
X119534200Y-36933381D01*
X119534200Y-36933381D02*
X119496104Y-36971476D01*
X119496104Y-36971476D02*
X119419914Y-37009571D01*
X119419914Y-37009571D02*
X119229438Y-37009571D01*
X119229438Y-37009571D02*
X119153247Y-36971476D01*
X119153247Y-36971476D02*
X119115152Y-36933381D01*
X119115152Y-36933381D02*
X119077057Y-36857190D01*
X119077057Y-36857190D02*
X119077057Y-36704809D01*
X119077057Y-36704809D02*
X119115152Y-36628619D01*
X119115152Y-36628619D02*
X119153247Y-36590524D01*
X119153247Y-36590524D02*
X119229438Y-36552428D01*
X104332295Y-35790524D02*
X103532295Y-35790524D01*
X103532295Y-35790524D02*
X103532295Y-35981000D01*
X103532295Y-35981000D02*
X103570390Y-36095286D01*
X103570390Y-36095286D02*
X103646580Y-36171476D01*
X103646580Y-36171476D02*
X103722771Y-36209571D01*
X103722771Y-36209571D02*
X103875152Y-36247667D01*
X103875152Y-36247667D02*
X103989438Y-36247667D01*
X103989438Y-36247667D02*
X104141819Y-36209571D01*
X104141819Y-36209571D02*
X104218009Y-36171476D01*
X104218009Y-36171476D02*
X104294200Y-36095286D01*
X104294200Y-36095286D02*
X104332295Y-35981000D01*
X104332295Y-35981000D02*
X104332295Y-35790524D01*
X103608485Y-36552428D02*
X103570390Y-36590524D01*
X103570390Y-36590524D02*
X103532295Y-36666714D01*
X103532295Y-36666714D02*
X103532295Y-36857190D01*
X103532295Y-36857190D02*
X103570390Y-36933381D01*
X103570390Y-36933381D02*
X103608485Y-36971476D01*
X103608485Y-36971476D02*
X103684676Y-37009571D01*
X103684676Y-37009571D02*
X103760866Y-37009571D01*
X103760866Y-37009571D02*
X103875152Y-36971476D01*
X103875152Y-36971476D02*
X104332295Y-36514333D01*
X104332295Y-36514333D02*
X104332295Y-37009571D01*
X124233247Y-25135190D02*
X124271342Y-25249476D01*
X124271342Y-25249476D02*
X124309438Y-25287571D01*
X124309438Y-25287571D02*
X124385628Y-25325667D01*
X124385628Y-25325667D02*
X124499914Y-25325667D01*
X124499914Y-25325667D02*
X124576104Y-25287571D01*
X124576104Y-25287571D02*
X124614200Y-25249476D01*
X124614200Y-25249476D02*
X124652295Y-25173286D01*
X124652295Y-25173286D02*
X124652295Y-24868524D01*
X124652295Y-24868524D02*
X123852295Y-24868524D01*
X123852295Y-24868524D02*
X123852295Y-25135190D01*
X123852295Y-25135190D02*
X123890390Y-25211381D01*
X123890390Y-25211381D02*
X123928485Y-25249476D01*
X123928485Y-25249476D02*
X124004676Y-25287571D01*
X124004676Y-25287571D02*
X124080866Y-25287571D01*
X124080866Y-25287571D02*
X124157057Y-25249476D01*
X124157057Y-25249476D02*
X124195152Y-25211381D01*
X124195152Y-25211381D02*
X124233247Y-25135190D01*
X124233247Y-25135190D02*
X124233247Y-24868524D01*
X123852295Y-25592333D02*
X123852295Y-26087571D01*
X123852295Y-26087571D02*
X124157057Y-25820905D01*
X124157057Y-25820905D02*
X124157057Y-25935190D01*
X124157057Y-25935190D02*
X124195152Y-26011381D01*
X124195152Y-26011381D02*
X124233247Y-26049476D01*
X124233247Y-26049476D02*
X124309438Y-26087571D01*
X124309438Y-26087571D02*
X124499914Y-26087571D01*
X124499914Y-26087571D02*
X124576104Y-26049476D01*
X124576104Y-26049476D02*
X124614200Y-26011381D01*
X124614200Y-26011381D02*
X124652295Y-25935190D01*
X124652295Y-25935190D02*
X124652295Y-25706619D01*
X124652295Y-25706619D02*
X124614200Y-25630428D01*
X124614200Y-25630428D02*
X124576104Y-25592333D01*
X117032295Y-35790524D02*
X116232295Y-35790524D01*
X116232295Y-35790524D02*
X116232295Y-35981000D01*
X116232295Y-35981000D02*
X116270390Y-36095286D01*
X116270390Y-36095286D02*
X116346580Y-36171476D01*
X116346580Y-36171476D02*
X116422771Y-36209571D01*
X116422771Y-36209571D02*
X116575152Y-36247667D01*
X116575152Y-36247667D02*
X116689438Y-36247667D01*
X116689438Y-36247667D02*
X116841819Y-36209571D01*
X116841819Y-36209571D02*
X116918009Y-36171476D01*
X116918009Y-36171476D02*
X116994200Y-36095286D01*
X116994200Y-36095286D02*
X117032295Y-35981000D01*
X117032295Y-35981000D02*
X117032295Y-35790524D01*
X116498961Y-36933381D02*
X117032295Y-36933381D01*
X116194200Y-36742905D02*
X116765628Y-36552428D01*
X116765628Y-36552428D02*
X116765628Y-37047667D01*
X124233247Y-35828619D02*
X124233247Y-36095285D01*
X124652295Y-36209571D02*
X124652295Y-35828619D01*
X124652295Y-35828619D02*
X123852295Y-35828619D01*
X123852295Y-35828619D02*
X123852295Y-36209571D01*
X123852295Y-36895286D02*
X123852295Y-36742905D01*
X123852295Y-36742905D02*
X123890390Y-36666714D01*
X123890390Y-36666714D02*
X123928485Y-36628619D01*
X123928485Y-36628619D02*
X124042771Y-36552429D01*
X124042771Y-36552429D02*
X124195152Y-36514333D01*
X124195152Y-36514333D02*
X124499914Y-36514333D01*
X124499914Y-36514333D02*
X124576104Y-36552429D01*
X124576104Y-36552429D02*
X124614200Y-36590524D01*
X124614200Y-36590524D02*
X124652295Y-36666714D01*
X124652295Y-36666714D02*
X124652295Y-36819095D01*
X124652295Y-36819095D02*
X124614200Y-36895286D01*
X124614200Y-36895286D02*
X124576104Y-36933381D01*
X124576104Y-36933381D02*
X124499914Y-36971476D01*
X124499914Y-36971476D02*
X124309438Y-36971476D01*
X124309438Y-36971476D02*
X124233247Y-36933381D01*
X124233247Y-36933381D02*
X124195152Y-36895286D01*
X124195152Y-36895286D02*
X124157057Y-36819095D01*
X124157057Y-36819095D02*
X124157057Y-36666714D01*
X124157057Y-36666714D02*
X124195152Y-36590524D01*
X124195152Y-36590524D02*
X124233247Y-36552429D01*
X124233247Y-36552429D02*
X124309438Y-36514333D01*
X114073247Y-25192333D02*
X114073247Y-24925667D01*
X114492295Y-24925667D02*
X113692295Y-24925667D01*
X113692295Y-24925667D02*
X113692295Y-25306619D01*
X113692295Y-25992333D02*
X113692295Y-25611381D01*
X113692295Y-25611381D02*
X114073247Y-25573285D01*
X114073247Y-25573285D02*
X114035152Y-25611381D01*
X114035152Y-25611381D02*
X113997057Y-25687571D01*
X113997057Y-25687571D02*
X113997057Y-25878047D01*
X113997057Y-25878047D02*
X114035152Y-25954238D01*
X114035152Y-25954238D02*
X114073247Y-25992333D01*
X114073247Y-25992333D02*
X114149438Y-26030428D01*
X114149438Y-26030428D02*
X114339914Y-26030428D01*
X114339914Y-26030428D02*
X114416104Y-25992333D01*
X114416104Y-25992333D02*
X114454200Y-25954238D01*
X114454200Y-25954238D02*
X114492295Y-25878047D01*
X114492295Y-25878047D02*
X114492295Y-25687571D01*
X114492295Y-25687571D02*
X114454200Y-25611381D01*
X114454200Y-25611381D02*
X114416104Y-25573285D01*
D11*
%TO.C,U1*%
X97620000Y-22030000D02*
X97620000Y-39810000D01*
X97620000Y-39810000D02*
X130640000Y-39810000D01*
X100160000Y-37270000D02*
X100160000Y-39810000D01*
X100160000Y-37270000D02*
X102700000Y-37270000D01*
X102700000Y-37270000D02*
X102700000Y-39810000D01*
X130640000Y-22030000D02*
X97620000Y-22030000D01*
X130640000Y-39810000D02*
X130640000Y-22030000D01*
D10*
X106849030Y-24675365D02*
X106049030Y-24675365D01*
X106049030Y-24575365D01*
X106849030Y-24575365D01*
X106849030Y-24675365D01*
G36*
X106849030Y-24675365D02*
G01*
X106049030Y-24675365D01*
X106049030Y-24575365D01*
X106849030Y-24575365D01*
X106849030Y-24675365D01*
G37*
X106149030Y-25075365D02*
X106049030Y-25075365D01*
X106049030Y-24575365D01*
X106149030Y-24575365D01*
X106149030Y-25075365D01*
G36*
X106149030Y-25075365D02*
G01*
X106049030Y-25075365D01*
X106049030Y-24575365D01*
X106149030Y-24575365D01*
X106149030Y-25075365D01*
G37*
X106349030Y-25075365D02*
X106049030Y-25075365D01*
X106049030Y-24975365D01*
X106349030Y-24975365D01*
X106349030Y-25075365D01*
G36*
X106349030Y-25075365D02*
G01*
X106049030Y-25075365D01*
X106049030Y-24975365D01*
X106349030Y-24975365D01*
X106349030Y-25075365D01*
G37*
X106549030Y-24875365D02*
X106449030Y-24875365D01*
X106449030Y-24775365D01*
X106549030Y-24775365D01*
X106549030Y-24875365D01*
G36*
X106549030Y-24875365D02*
G01*
X106449030Y-24875365D01*
X106449030Y-24775365D01*
X106549030Y-24775365D01*
X106549030Y-24875365D01*
G37*
X106849030Y-25075365D02*
X106649030Y-25075365D01*
X106649030Y-24975365D01*
X106849030Y-24975365D01*
X106849030Y-25075365D01*
G36*
X106849030Y-25075365D02*
G01*
X106649030Y-25075365D01*
X106649030Y-24975365D01*
X106849030Y-24975365D01*
X106849030Y-25075365D01*
G37*
D12*
%TO.C,D6*%
X140950000Y-87030000D02*
X142050000Y-87030000D01*
X141100000Y-86430000D02*
X141900000Y-86430000D01*
X141500000Y-85930000D02*
X141500000Y-86430000D01*
X141500000Y-87030000D02*
X141100000Y-86430000D01*
X141500000Y-87030000D02*
X141500000Y-87430000D01*
X141900000Y-86430000D02*
X141500000Y-87030000D01*
%TO.C,D9*%
X140950000Y-106080000D02*
X142050000Y-106080000D01*
X141100000Y-105480000D02*
X141900000Y-105480000D01*
X141500000Y-104980000D02*
X141500000Y-105480000D01*
X141500000Y-106080000D02*
X141100000Y-105480000D01*
X141500000Y-106080000D02*
X141500000Y-106480000D01*
X141900000Y-105480000D02*
X141500000Y-106080000D01*
%TO.C,D3*%
X140860000Y-67980000D02*
X141960000Y-67980000D01*
X141010000Y-67380000D02*
X141810000Y-67380000D01*
X141410000Y-66880000D02*
X141410000Y-67380000D01*
X141410000Y-67980000D02*
X141010000Y-67380000D01*
X141410000Y-67980000D02*
X141410000Y-68380000D01*
X141810000Y-67380000D02*
X141410000Y-67980000D01*
%TO.C,D7*%
X102850000Y-106080000D02*
X103950000Y-106080000D01*
X103000000Y-105480000D02*
X103800000Y-105480000D01*
X103400000Y-104980000D02*
X103400000Y-105480000D01*
X103400000Y-106080000D02*
X103000000Y-105480000D01*
X103400000Y-106080000D02*
X103400000Y-106480000D01*
X103800000Y-105480000D02*
X103400000Y-106080000D01*
%TO.C,D4*%
X102850000Y-87030000D02*
X103950000Y-87030000D01*
X103000000Y-86430000D02*
X103800000Y-86430000D01*
X103400000Y-85930000D02*
X103400000Y-86430000D01*
X103400000Y-87030000D02*
X103000000Y-86430000D01*
X103400000Y-87030000D02*
X103400000Y-87430000D01*
X103800000Y-86430000D02*
X103400000Y-87030000D01*
%TO.C,D8*%
X121900000Y-106080000D02*
X123000000Y-106080000D01*
X122050000Y-105480000D02*
X122850000Y-105480000D01*
X122450000Y-104980000D02*
X122450000Y-105480000D01*
X122450000Y-106080000D02*
X122050000Y-105480000D01*
X122450000Y-106080000D02*
X122450000Y-106480000D01*
X122850000Y-105480000D02*
X122450000Y-106080000D01*
%TO.C,D5*%
X121900000Y-87030000D02*
X123000000Y-87030000D01*
X122050000Y-86430000D02*
X122850000Y-86430000D01*
X122450000Y-85930000D02*
X122450000Y-86430000D01*
X122450000Y-87030000D02*
X122050000Y-86430000D01*
X122450000Y-87030000D02*
X122450000Y-87430000D01*
X122850000Y-86430000D02*
X122450000Y-87030000D01*
%TO.C,D1*%
X102850000Y-67980000D02*
X103950000Y-67980000D01*
X103000000Y-67380000D02*
X103800000Y-67380000D01*
X103400000Y-66880000D02*
X103400000Y-67380000D01*
X103400000Y-67980000D02*
X103000000Y-67380000D01*
X103400000Y-67980000D02*
X103400000Y-68380000D01*
X103800000Y-67380000D02*
X103400000Y-67980000D01*
%TO.C,D2*%
X121900000Y-67980000D02*
X123000000Y-67980000D01*
X122050000Y-67380000D02*
X122850000Y-67380000D01*
X122450000Y-66880000D02*
X122450000Y-67380000D01*
X122450000Y-67980000D02*
X122050000Y-67380000D01*
X122450000Y-67980000D02*
X122450000Y-68380000D01*
X122850000Y-67380000D02*
X122450000Y-67980000D01*
%TD*%
D13*
%TO.C,U1*%
X101430000Y-38540000D03*
D14*
X103970000Y-38540000D03*
X106510000Y-38540000D03*
X109050000Y-38540000D03*
X111590000Y-38540000D03*
X114130000Y-38540000D03*
X116670000Y-38540000D03*
X119210000Y-38540000D03*
X121750000Y-38540000D03*
X124290000Y-38540000D03*
X126830000Y-38540000D03*
X129370000Y-38540000D03*
X129370000Y-23300000D03*
X126830000Y-23300000D03*
X124290000Y-23300000D03*
X121750000Y-23300000D03*
X119210000Y-23300000D03*
X116670000Y-23300000D03*
X114130000Y-23300000D03*
X111590000Y-23300000D03*
X109050000Y-23300000D03*
X106510000Y-23300000D03*
X103970000Y-23300000D03*
X101430000Y-23300000D03*
%TD*%
%LPC*%
D15*
%TO.C,RV1*%
X98650000Y-53420000D03*
X89050000Y-53420000D03*
D16*
X96350000Y-45920000D03*
D17*
X93850000Y-45920000D03*
X91350000Y-45920000D03*
%TD*%
D18*
%TO.C,S1*%
X88770000Y-68920000D03*
D19*
X93850000Y-68920000D03*
D18*
X98930000Y-68920000D03*
D20*
X90040000Y-66380000D03*
X96390000Y-63840000D03*
%TD*%
D15*
%TO.C,RV3*%
X136750000Y-53420000D03*
X127150000Y-53420000D03*
D16*
X134450000Y-45920000D03*
D17*
X131950000Y-45920000D03*
X129450000Y-45920000D03*
%TD*%
D13*
%TO.C,U1*%
X101430000Y-38540000D03*
D14*
X103970000Y-38540000D03*
X106510000Y-38540000D03*
X109050000Y-38540000D03*
X111590000Y-38540000D03*
X114130000Y-38540000D03*
X116670000Y-38540000D03*
X119210000Y-38540000D03*
X121750000Y-38540000D03*
X124290000Y-38540000D03*
X126830000Y-38540000D03*
X129370000Y-38540000D03*
X129370000Y-23300000D03*
X126830000Y-23300000D03*
X124290000Y-23300000D03*
X121750000Y-23300000D03*
X119210000Y-23300000D03*
X116670000Y-23300000D03*
X114130000Y-23300000D03*
X111590000Y-23300000D03*
X109050000Y-23300000D03*
X106510000Y-23300000D03*
X103970000Y-23300000D03*
X101430000Y-23300000D03*
%TD*%
D18*
%TO.C,S6*%
X126870000Y-87970000D03*
D19*
X131950000Y-87970000D03*
D18*
X137030000Y-87970000D03*
D20*
X128140000Y-85430000D03*
X134490000Y-82890000D03*
%TD*%
D18*
%TO.C,S7*%
X88770000Y-107020000D03*
D19*
X93850000Y-107020000D03*
D18*
X98930000Y-107020000D03*
D20*
X90040000Y-104480000D03*
X96390000Y-101940000D03*
%TD*%
D18*
%TO.C,S2*%
X107820000Y-68920000D03*
D19*
X112900000Y-68920000D03*
D18*
X117980000Y-68920000D03*
D20*
X109090000Y-66380000D03*
X115440000Y-63840000D03*
%TD*%
D18*
%TO.C,S9*%
X126870000Y-107020000D03*
D19*
X131950000Y-107020000D03*
D18*
X137030000Y-107020000D03*
D20*
X128140000Y-104480000D03*
X134490000Y-101940000D03*
%TD*%
D15*
%TO.C,RV2*%
X117700000Y-53420000D03*
X108100000Y-53420000D03*
D16*
X115400000Y-45920000D03*
D17*
X112900000Y-45920000D03*
X110400000Y-45920000D03*
%TD*%
D18*
%TO.C,S5*%
X107820000Y-87970000D03*
D19*
X112900000Y-87970000D03*
D18*
X117980000Y-87970000D03*
D20*
X109090000Y-85430000D03*
X115440000Y-82890000D03*
%TD*%
D18*
%TO.C,S3*%
X126870000Y-68920000D03*
D19*
X131950000Y-68920000D03*
D18*
X137030000Y-68920000D03*
D20*
X128140000Y-66380000D03*
X134490000Y-63840000D03*
%TD*%
D18*
%TO.C,S8*%
X107820000Y-107020000D03*
D19*
X112900000Y-107020000D03*
D18*
X117980000Y-107020000D03*
D20*
X109090000Y-104480000D03*
X115440000Y-101940000D03*
%TD*%
D18*
%TO.C,S4*%
X88770000Y-87970000D03*
D19*
X93850000Y-87970000D03*
D18*
X98930000Y-87970000D03*
D20*
X90040000Y-85430000D03*
X96390000Y-82890000D03*
%TD*%
D21*
%TO.C,D6*%
X141500000Y-90490000D03*
D22*
X141500000Y-82870000D03*
%TD*%
D21*
%TO.C,D9*%
X141500000Y-109540000D03*
D22*
X141500000Y-101920000D03*
%TD*%
D21*
%TO.C,D3*%
X141410000Y-71440000D03*
D22*
X141410000Y-63820000D03*
%TD*%
D21*
%TO.C,D7*%
X103400000Y-109540000D03*
D22*
X103400000Y-101920000D03*
%TD*%
D21*
%TO.C,D4*%
X103400000Y-90490000D03*
D22*
X103400000Y-82870000D03*
%TD*%
D21*
%TO.C,D8*%
X122450000Y-109540000D03*
D22*
X122450000Y-101920000D03*
%TD*%
D21*
%TO.C,D5*%
X122450000Y-90490000D03*
D22*
X122450000Y-82870000D03*
%TD*%
D21*
%TO.C,D1*%
X103400000Y-71440000D03*
D22*
X103400000Y-63820000D03*
%TD*%
D21*
%TO.C,D2*%
X122450000Y-71440000D03*
D22*
X122450000Y-63820000D03*
%TD*%
%LPD*%
M02*
